# MagicaVoxel @ Ephtracy

# group
o 

# material
mtllib untitled1.mtl
usemtl palette

# normals
vn -1 0 0
vn 1 0 0
vn 0 0 1
vn 0 0 -1
vn 0 -1 0
vn 0 1 0

# texcoords
vt 0.841797 0.5
vt 0.970703 0.5
vt 0.990234 0.5

# verts
v -0.2 0 0.2
v -0.2 0 -0.2
v -0.2 0.3 -0.2
v -0.2 0.3 -0.3
v -0.2 0.5 0.2
v -0.2 0.5 -0.3
v -0.1 0.1 -0.2
v -0.1 0.1 -0.3
v -0.1 0.2 -0.2
v -0.1 0.2 -0.3
v 0 0 -0.2
v 0 0 -0.3
v 0 0.1 -0.2
v 0 0.1 -0.3
v 0 0.2 -0.2
v 0 0.2 -0.3
v 0 0.3 -0.2
v 0 0.3 -0.3
v 0.2 0 -0.2
v 0.2 0 -0.3
v 0.2 0.1 -0.2
v 0.2 0.1 -0.3
v 0.2 0.2 -0.2
v 0.2 0.2 -0.3
v 0.2 0.5 -0.2
v 0.2 0.5 -0.3
v 0.3 0 0.2
v 0.3 0 -0.2
v 0.3 0.5 0.2
v 0.3 0.5 -0.2
v -0.2 0 0.2
v -0.2 0.5 0.2
v 0 0.1 0.2
v 0 0.2 0.2
v 0.1 0.1 0.2
v 0.1 0.2 0.2
v 0.3 0 0.2
v 0.3 0.5 0.2
v -0.2 0 -0.2
v -0.2 0.3 -0.2
v -0.1 0.1 -0.2
v -0.1 0.2 -0.2
v 0 0 -0.2
v 0 0.1 -0.2
v 0 0.2 -0.2
v 0 0.3 -0.2
v 0.2 0 -0.2
v 0.2 0.1 -0.2
v 0.2 0.2 -0.2
v 0.2 0.5 -0.2
v 0.3 0 -0.2
v 0.3 0.5 -0.2
v -0.2 0.3 -0.3
v -0.2 0.5 -0.3
v -0.1 0.1 -0.3
v -0.1 0.2 -0.3
v 0 0 -0.3
v 0 0.1 -0.3
v 0 0.2 -0.3
v 0 0.3 -0.3
v 0.1 0 -0.3
v 0.1 0.1 -0.3
v 0.1 0.2 -0.3
v 0.1 0.3 -0.3
v 0.2 0 -0.3
v 0.2 0.1 -0.3
v 0.2 0.2 -0.3
v 0.2 0.5 -0.3
v -0.2 0 0.2
v 0.3 0 0.2
v -0.1 0 0.1
v 0.2 0 0.1
v -0.1 0 0
v 0.2 0 0
v -0.1 0 -0.1
v 0 0 -0.1
v 0.1 0 -0.1
v 0.2 0 -0.1
v -0.2 0 -0.2
v 0 0 -0.2
v 0.2 0 -0.2
v 0.3 0 -0.2
v 0 0 -0.3
v 0.1 0 -0.3
v 0.2 0 -0.3
v -0.1 0.1 -0.2
v 0 0.1 -0.2
v -0.1 0.1 -0.3
v 0 0.1 -0.3
v -0.2 0.3 -0.2
v 0 0.3 -0.2
v -0.2 0.3 -0.3
v 0 0.3 -0.3
v -0.1 0.2 -0.2
v 0 0.2 -0.2
v -0.1 0.2 -0.3
v 0 0.2 -0.3
v -0.2 0.5 0.2
v 0.3 0.5 0.2
v 0.2 0.5 -0.2
v 0.3 0.5 -0.2
v -0.2 0.5 -0.3
v 0.2 0.5 -0.3

# faces
f 3/1/1 2/1/1 1/1/1
f 5/1/1 3/1/1 1/1/1
f 5/1/1 4/1/1 3/1/1
f 6/1/1 4/1/1 5/1/1
f 9/3/1 8/3/1 7/3/1
f 10/3/1 8/3/1 9/3/1
f 13/3/1 12/3/1 11/3/1
f 14/3/1 12/3/1 13/3/1
f 17/3/1 16/3/1 15/3/1
f 18/3/1 16/3/1 17/3/1
f 19/1/2 20/1/2 21/1/2
f 21/1/2 20/1/2 22/1/2
f 21/3/2 22/3/2 23/3/2
f 23/3/2 22/3/2 24/3/2
f 23/1/2 24/1/2 25/1/2
f 25/1/2 24/1/2 26/1/2
f 27/1/2 28/1/2 29/1/2
f 29/1/2 28/1/2 30/1/2
f 33/1/3 32/1/3 31/1/3
f 34/1/3 32/1/3 33/1/3
f 35/1/3 33/1/3 31/1/3
f 35/3/3 34/3/3 33/3/3
f 36/1/3 32/1/3 34/1/3
f 36/3/3 34/3/3 35/3/3
f 37/1/3 35/1/3 31/1/3
f 37/1/3 36/1/3 35/1/3
f 38/1/3 32/1/3 36/1/3
f 38/1/3 36/1/3 37/1/3
f 39/1/4 40/1/4 41/1/4
f 41/1/4 40/1/4 42/1/4
f 39/1/4 41/1/4 43/1/4
f 43/1/4 41/1/4 44/1/4
f 42/1/4 40/1/4 45/1/4
f 45/1/4 40/1/4 46/1/4
f 48/1/4 49/1/4 51/1/4
f 49/1/4 50/1/4 51/1/4
f 47/1/4 48/1/4 51/1/4
f 51/1/4 50/1/4 52/1/4
f 55/3/4 56/3/4 58/3/4
f 58/3/4 56/3/4 59/3/4
f 53/1/4 54/1/4 60/1/4
f 57/3/4 58/3/4 61/3/4
f 58/1/4 59/1/4 62/1/4
f 61/3/4 58/3/4 62/3/4
f 59/3/4 60/3/4 63/3/4
f 62/1/4 59/1/4 63/1/4
f 60/1/4 54/1/4 64/1/4
f 63/3/4 60/3/4 64/3/4
f 61/1/4 62/1/4 65/1/4
f 62/3/4 63/3/4 66/3/4
f 65/1/4 62/1/4 66/1/4
f 63/1/4 64/1/4 67/1/4
f 66/3/4 63/3/4 67/3/4
f 64/1/4 54/1/4 68/1/4
f 67/1/4 64/1/4 68/1/4
f 71/1/5 70/1/5 69/1/5
f 72/1/5 70/1/5 71/1/5
f 73/1/5 71/1/5 69/1/5
f 73/3/5 72/3/5 71/3/5
f 74/1/5 70/1/5 72/1/5
f 74/3/5 72/3/5 73/3/5
f 75/1/5 73/1/5 69/1/5
f 75/2/5 74/2/5 73/2/5
f 76/2/5 74/2/5 75/2/5
f 77/2/5 74/2/5 76/2/5
f 78/1/5 70/1/5 74/1/5
f 78/2/5 74/2/5 77/2/5
f 79/1/5 75/1/5 69/1/5
f 79/1/5 76/1/5 75/1/5
f 80/3/5 77/3/5 76/3/5
f 80/1/5 76/1/5 79/1/5
f 81/1/5 70/1/5 78/1/5
f 81/1/5 78/1/5 77/1/5
f 82/1/5 70/1/5 81/1/5
f 83/3/5 77/3/5 80/3/5
f 84/1/5 81/1/5 77/1/5
f 84/3/5 77/3/5 83/3/5
f 85/1/5 81/1/5 84/1/5
f 88/3/5 87/3/5 86/3/5
f 89/3/5 87/3/5 88/3/5
f 92/1/5 91/1/5 90/1/5
f 93/1/5 91/1/5 92/1/5
f 94/3/6 95/3/6 96/3/6
f 96/3/6 95/3/6 97/3/6
f 98/1/6 99/1/6 100/1/6
f 100/1/6 99/1/6 101/1/6
f 98/1/6 100/1/6 102/1/6
f 102/1/6 100/1/6 103/1/6
